<svg id="visual" viewBox="0 0 540 960" width="540" height="960" xmlns="http://www.w3.org/2000/svg" xmlns:xlink="http://www.w3.org/1999/xlink" version="1.1"><rect x="0" y="0" width="540" height="960" fill="#1b1e3a"></rect><defs><linearGradient id="grad1_0" x1="0%" y1="0%" x2="100%" y2="100%"><stop offset="30%" stop-color="#1b1e3a" stop-opacity="1"></stop><stop offset="70%" stop-color="#1b1e3a" stop-opacity="1"></stop></linearGradient></defs><defs><linearGradient id="grad2_0" x1="0%" y1="0%" x2="100%" y2="100%"><stop offset="30%" stop-color="#1b1e3a" stop-opacity="1"></stop><stop offset="70%" stop-color="#1b1e3a" stop-opacity="1"></stop></linearGradient></defs><g transform="translate(540, 0)"><path d="M0 486C-49.5 440.2 -99 394.3 -153.8 371.4C-208.7 348.5 -268.9 348.5 -322.4 322.4C-376 296.3 -422.9 244.1 -449 186C-475.2 127.9 -480.6 63.9 -486 0L0 0Z" fill="#eeeeee"></path></g><g transform="translate(0, 960)"><path d="M0 -486C63.8 -479.3 127.5 -472.6 186 -449C244.4 -425.4 297.5 -384.8 336.6 -336.6C375.6 -288.4 400.6 -232.6 423.1 -175.3C445.7 -117.9 465.8 -59 486 0L0 0Z" fill="#eeeeee"></path></g></svg>