<svg id="visual" viewBox="0 0 900 900" width="900" height="900" xmlns="http://www.w3.org/2000/svg" xmlns:xlink="http://www.w3.org/1999/xlink" version="1.1"><rect x="0" y="0" width="900" height="900" fill="#1b1e3a"></rect><defs><linearGradient id="grad1_0" x1="0%" y1="0%" x2="100%" y2="100%"><stop offset="30%" stop-color="#1b1e3a" stop-opacity="1"></stop><stop offset="70%" stop-color="#1b1e3a" stop-opacity="1"></stop></linearGradient></defs><defs><linearGradient id="grad2_0" x1="0%" y1="0%" x2="100%" y2="100%"><stop offset="30%" stop-color="#1b1e3a" stop-opacity="1"></stop><stop offset="70%" stop-color="#1b1e3a" stop-opacity="1"></stop></linearGradient></defs><g transform="translate(900, 0)"><path d="M0 572.8C-84.9 574.2 -169.8 575.7 -219.2 529.2C-268.6 482.6 -282.6 388 -333 333C-383.5 278.1 -470.4 262.8 -516.4 213.9C-562.5 165 -567.6 82.5 -572.8 0L0 0Z" fill="#eeeeee"></path></g><g transform="translate(0, 900)"><path d="M0 -572.8C64.5 -531.1 129.1 -489.4 189.4 -457.3C249.8 -425.2 305.9 -402.7 367 -367C428.1 -331.3 494 -282.5 529.2 -219.2C564.3 -155.8 568.5 -77.9 572.8 0L0 0Z" fill="#eeeeee"></path></g></svg>