<svg id="visual" viewBox="0 0 960 540" width="960" height="540" xmlns="http://www.w3.org/2000/svg" xmlns:xlink="http://www.w3.org/1999/xlink" version="1.1"><rect x="0" y="0" width="960" height="540" fill="#1b1e3a"></rect><defs><linearGradient id="grad1_0" x1="43.8%" y1="0%" x2="100%" y2="100%"><stop offset="14.444444444444446%" stop-color="#1b1e3a" stop-opacity="1"></stop><stop offset="85.55555555555554%" stop-color="#1b1e3a" stop-opacity="1"></stop></linearGradient></defs><defs><linearGradient id="grad2_0" x1="0%" y1="0%" x2="56.3%" y2="100%"><stop offset="14.444444444444446%" stop-color="#1b1e3a" stop-opacity="1"></stop><stop offset="85.55555555555554%" stop-color="#1b1e3a" stop-opacity="1"></stop></linearGradient></defs><g transform="translate(960, 0)"><path d="M0 378C-32.8 371.4 -65.6 364.8 -94 350.6C-122.3 336.5 -146.1 314.8 -173 299.6C-199.9 284.4 -229.8 275.7 -259.5 259.5C-289.2 243.3 -318.8 219.7 -327.4 189C-335.9 158.3 -323.5 120.7 -328.4 88C-333.4 55.3 -355.7 27.7 -378 0L0 0Z" fill="#eee"></path></g><g transform="translate(0, 540)"><path d="M0 -378C35.9 -380.5 71.9 -383 97.8 -365.1C123.8 -347.3 139.7 -309 168.5 -291.9C197.3 -274.7 239 -278.6 258.1 -258.1C277.2 -237.6 273.8 -192.8 278 -160.5C282.2 -128.2 294.1 -108.3 312 -83.6C329.9 -58.9 354 -29.5 378 0L0 0Z" fill="#eee"></path></g></svg>